

<svg width="580" height="400" xmlns="http://www.w3.org/2000/svg" stroke="null" style="vector-effect: non-scaling-stroke;">
 <!-- Created with Method Draw - http://github.com/duopixel/Method-Draw/ -->

 <g stroke="null">
  <title stroke="null">background</title>
  <rect stroke="null" fill="#fff" id="canvas_background" height="402" width="582" y="-1" x="-1"/>
  <g stroke="null" style="vector-effect: non-scaling-stroke;" display="none" overflow="visible" y="0" x="0" height="100%" width="100%" id="canvasGrid">
   <rect fill="url(#gridpattern)" stroke-width="0" y="0" x="0" height="100%" width="100%"/>
  </g>
 </g>
 <g stroke="null">
  <title stroke="null">Layer 1</title>
  <g stroke="null" id="svg_42">
   <g transform="matrix(0.04987338462421794,0,0,0.049916649152749626,-3191.636661267726,-2176.407386782044) " stroke="null" id="svg_41">
    <title stroke="null" transform="translate(-627.7400512695312,-837.4911499023438) translate(-1754.7730712890625,-554.2704467773438) translate(35.927616119384766,0) translate(69829.40625,0) translate(0,47794.6953125) matrix(0.04987338462421794,0,0,0.049916649152749626,-67308.86073035776,-46263.062140651455) ">Layer 1</title>
    <path transform="matrix(0.04987338462421794,0,0,0.049916649152749626,-3191.636661267726,-2176.407386782044) " stroke="#000000" id="svg_39" clip-rule="evenodd" fill="#ff0000" fill-rule="evenodd" stroke-miterlimit="10" stroke-width="37" d="m68560.760684,48362.563716c-38.7699,-190.30004 -107.11597,-348.67004 -189.90295,-495.44006c-61.40698,-108.86999 -132.54401,-209.35998 -198.36402,-314.93994c-21.97198,-35.23999 -40.93396,-72.47998 -62.04699,-109.05005c-42.21601,-73.13995 -76.44397,-157.93793 -74.26899,-267.93494c2.125,-107.47302 33.20801,-193.68402 78.03003,-264.17202c73.719,-115.935 197.20099,-210.98899 362.88398,-235.969c135.46899,-20.42399 262.479,14.082 352.53906,66.74802c73.59997,43.03799 130.59997,100.52698 173.91992,168.28c45.21997,70.71597 76.35999,154.25998 78.96997,263.23196c1.34009,55.83002 -7.79993,107.53204 -20.67993,150.41803c-13.03003,43.409 -33.98999,79.698 -52.64002,118.45801c-36.41003,75.66003 -82.05004,144.97998 -127.85998,214.33997c-136.44006,206.60998 -264.5,417.31005 -320.58008,706.03002z"/>
    <circle transform="matrix(0.04987338462421794,0,0,0.049916649152749626,-3191.636661267726,-2176.407386782044) " stroke="null" id="svg_38" clip-rule="evenodd" fill="black" fill-rule="evenodd" cx="68563.370744" cy="47142.980716" r="183.332001"/>
   </g>
  </g>
  <path stroke="#000000" id="svg_61" clip-rule="evenodd" fill="#e37222" fill-rule="evenodd" stroke-miterlimit="10" stroke-width="5" d="m60.864009,181.564453c-4.127921,-19.841131 -11.404886,-36.35316 -20.219408,-51.655749c-6.538144,-11.351042 -14.112268,-21.828365 -21.120277,-32.836381c-2.339408,-3.674204 -4.358334,-7.556934 -6.606287,-11.369815c-4.494836,-7.625744 -8.139167,-16.466981 -7.907592,-27.935529c0.226254,-11.20539 3.535734,-20.193953 8.308038,-27.543198c7.849033,-12.087656 20.996447,-21.99821 38.637099,-24.602684c14.423698,-2.129453 27.946748,1.468223 37.535651,6.959306c7.83636,4.487242 13.905282,10.48118 18.517657,17.54527c4.814675,7.373014 8.130225,16.083509 8.408116,27.445185c0.142682,5.82097 -0.830477,11.211544 -2.20184,15.682938c-1.387338,4.525925 -3.618993,8.309501 -5.604705,12.350711c-3.87666,7.888493 -8.736058,15.115955 -13.613549,22.347591c-14.52709,21.541644 -28.161928,43.50973 -34.132905,73.612355z"/>
  <g stroke="null" id="svg_55">
   <g stroke="null" transform="matrix(0.14963851228354536,0,0,0.14955829344877455,123.56629916512884,79.14689574219166) " id="svg_48">
    <polygon stroke="null" id="svg_49" points="-224.51780700683582,-249.2999086380005 -224.53587341308582,-249.2999086380005 -322.2778320312499,-292.2999849319458 -420.0178222656249,-335.30004596710205 -517.7579345703124,-292.2999849319458 -615.4990234374999,-249.2999086380005 -615.5180664062499,-249.2999086380005 -615.5180664062499,-199.29987812042236 -224.51780700683582,-199.29987812042236 " fill="#020201"/>
    <path stroke="null" id="svg_50" d="m-577.017939,-16.2999c-5.799,0 -10.5,4.701 -10.5,10.5s4.701,10.5 10.5,10.5l62,0c5.799,0 10.5,-4.701 10.5,-10.5s-4.701,-10.5 -10.5,-10.5l-3.5,0l0,-150l3.5,0c5.799,0 10.5,-4.701 10.5,-10.5s-4.701,-10.5 -10.5,-10.5l-62,0c-5.799,0 -10.5,4.701 -10.5,10.5s4.701,10.5 10.5,10.5l3.5,0l0,150l-3.5,0z" fill="#020201"/>
    <path stroke="null" id="svg_51" d="m-451.017939,-16.2999c-5.799,0 -10.5,4.701 -10.5,10.5s4.701,10.5 10.5,10.5l62,0c5.799,0 10.5,-4.701 10.5,-10.5s-4.701,-10.5 -10.5,-10.5l-3.5,0l0,-150l3.5,0c5.799,0 10.5,-4.701 10.5,-10.5s-4.701,-10.5 -10.5,-10.5l-62,0c-5.799,0 -10.5,4.701 -10.5,10.5s4.701,10.5 10.5,10.5l3.5,0l0,150l-3.5,0z" fill="#020201"/>
    <path stroke="null" id="svg_52" d="m-323.017939,-16.2999c-5.799,0 -10.5,4.701 -10.5,10.5s4.701,10.5 10.5,10.5l62,0c5.799,0 10.5,-4.701 10.5,-10.5s-4.701,-10.5 -10.5,-10.5l-3.5,0l0,-150l3.5,0c5.799,0 10.5,-4.701 10.5,-10.5s-4.701,-10.5 -10.5,-10.5l-62,0c-5.799,0 -10.5,4.701 -10.5,10.5s4.701,10.5 10.5,10.5l3.5,0l0,150l-3.5,0z" fill="#020201"/>
    <path stroke="null" id="svg_53" d="m-615.507939,26.7001l0,6c0,5.522 4.477,10 10,10l370.98,0c5.522,0 10,-4.478 10,-10l0,-6c0,-5.522 -4.478,-10 -10,-10l-370.98,0c-5.523,0 -10,4.477 -10,10z" fill="#020201"/>
    <path stroke="null" id="svg_54" d="m-208.517939,54.7001l-423,0c-5.523,0 -10,4.478 -10,10l0,9c0,5.522 4.477,10 10,10l423,0c5.522,0 10,-4.478 10,-10l0,-9c0,-5.523 -4.477,-10 -10,-10z" fill="#020201"/>
   </g>
  </g>
 </g>
</svg>
